<?xml version="1.0" encoding="utf-8"?>
<!-- Generator: Adobe Illustrator 16.0.0, SVG Export Plug-In . SVG Version: 6.00 Build 0)  -->
<!DOCTYPE svg PUBLIC "-//W3C//DTD SVG 1.1//EN" "http://www.w3.org/Graphics/SVG/1.1/DTD/svg11.dtd">
<svg version="1.1" id="Layer_1" xmlns="http://www.w3.org/2000/svg" xmlns:xlink="http://www.w3.org/1999/xlink" x="0px" y="0px"
	 width="200px" height="200px" viewBox="0 0 200 200" enable-background="new 0 0 200 200" xml:space="preserve">
<rect x="-6.5" y="-9.5" width="206.5" height="209.5"/>
<g>
	<g>
		<path fill="#ED2224" d="M66.868,39.078H47.01c-0.086,0-0.171,0.008-0.255,0.023c-6.225,1.163-11.188,6.126-12.349,12.351
			c-0.017,0.084-0.024,0.169-0.024,0.254l-0.022,33.86c-0.587,3.028-2.986,5.46-6.012,6.09l-0.133,0.013H25.73
			c-0.768,0-1.39,0.622-1.39,1.39v13.88c0,0.764,0.615,1.384,1.377,1.391l2.689,0.025c3.017,0.653,5.399,3.101,5.964,6.135
			l0.011,0.119v33.684c0,0.086,0.007,0.171,0.024,0.255c1.162,6.226,6.125,11.188,12.349,12.351
			c0.084,0.017,0.169,0.023,0.255,0.023h19.857c0.768,0,1.39-0.622,1.39-1.39v-12.45c0-0.768-0.621-1.389-1.387-1.391L55.35,145.67
			c-2.594-0.502-4.787-2.341-5.74-4.82v-0.002V108.82c0-0.086-0.008-0.172-0.024-0.256c-0.61-3.263-2.311-6.305-4.788-8.565l0,0
			c2.477-2.261,4.178-5.302,4.788-8.564c0.016-0.084,0.024-0.17,0.024-0.256V59.152c0.961-2.5,3.178-4.347,5.797-4.833l0.118-0.011
			h11.341c0.768,0,1.39-0.622,1.39-1.39v-12.45C68.258,39.7,67.635,39.078,66.868,39.078z"/>
		<path fill="#ED2224" d="M174.283,91.669l-2.688-0.025c-3.021-0.654-5.402-3.101-5.966-6.136l-0.011-0.119V51.708
			c0-0.085-0.008-0.171-0.023-0.255c-1.162-6.225-6.125-11.188-12.351-12.351c-0.084-0.016-0.169-0.023-0.255-0.023h-19.858
			c-0.769,0-1.39,0.622-1.39,1.39V52.92c0,0.767,0.621,1.388,1.388,1.39l11.519,0.021c2.595,0.502,4.787,2.341,5.74,4.822V91.18
			c0,0.086,0.008,0.171,0.023,0.256c0.609,3.262,2.312,6.304,4.789,8.565c-2.479,2.261-4.18,5.304-4.789,8.565
			c-0.016,0.084-0.023,0.17-0.023,0.256v32.027c-0.961,2.498-3.179,4.346-5.797,4.834l-0.119,0.01h-11.341
			c-0.769,0-1.39,0.621-1.39,1.391v12.45c0,0.768,0.621,1.39,1.39,1.39h19.858c0.086,0,0.171-0.008,0.255-0.023
			c6.226-1.162,11.188-6.125,12.351-12.351c0.016-0.084,0.023-0.169,0.023-0.254l0.021-33.86c0.586-3.027,2.983-5.459,6.012-6.09
			l0.133-0.014h2.484c0.768,0,1.39-0.622,1.39-1.391V93.059C175.659,92.297,175.046,91.677,174.283,91.669z"/>
	</g>
	<g>
		<path fill="#FFC808" d="M135.961,68.191h-9.775c-0.951,0-1.785,0.6-2.103,1.502v37.635l-27.02-38.589
			c-0.411-0.354-0.924-0.547-1.453-0.547H83.658c-1.236,0-2.241,1.006-2.241,2.242c0,0.247,0.046,0.498,0.135,0.748l42.039,60.056
			c0.413,0.369,0.938,0.57,1.482,0.57h10.888c1.234,0,2.242-1.006,2.242-2.24V70.434C138.203,69.197,137.195,68.191,135.961,68.191z
			"/>
		<path fill="#FFC808" d="M115.184,88.097c1.234,0,2.241-1.005,2.241-2.241V70.434c0-1.236-1.007-2.242-2.241-2.242h-9.637
			c-1.234,0-2.24,1.006-2.24,2.242v2.229l10.422,14.886C114.141,87.902,114.652,88.097,115.184,88.097z"/>
		<path fill="#FFC808" d="M74.888,68.191h-10.85c-1.235,0-2.241,1.006-2.241,2.242v59.133c0,1.235,1.005,2.242,2.241,2.242h9.888
			c0.957,0,1.786-0.67,1.989-1.601V92.826l26.783,38.249c0.434,0.474,1.016,0.733,1.644,0.733h10.842
			c1.234,0,2.241-1.007,2.241-2.242v-2.104l-14.12-20.167l-1.01-1.412L76.299,68.758C75.917,68.392,75.417,68.191,74.888,68.191z"/>
	</g>
</g>
</svg>
